P2
# Created by GIMP version 2.10.30 PNM plug-in
138 52
255
151
107
101
97
95
95
94
92
88
82
78
79
82
89
93
91
86
86
88
89
87
86
83
81
79
81
85
91
93
91
86
81
80
81
79
77
78
78
78
76
76
79
81
82
82
82
84
88
86
83
81
81
85
90
92
93
97
100
101
103
108
113
118
122
124
126
128
129
125
119
115
110
110
111
111
108
109
113
115
114
114
115
117
121
124
129
136
141
141
141
143
149
152
150
148
147
149
152
156
160
165
165
161
156
151
147
142
142
149
156
157
155
158
160
157
151
152
156
159
161
164
163
161
162
163
166
168
168
166
163
162
162
162
159
154
151
150
208
130
78
72
72
73
72
70
66
61
57
58
63
68
73
75
72
67
65
67
69
69
62
58
56
56
58
64
70
73
72
68
62
60
62
61
58
54
52
52
50
48
48
51
52
54
55
58
60
59
58
61
67
71
74
75
73
70
67
64
63
65
74
77
81
88
94
92
90
90
90
90
86
82
83
86
82
81
84
92
99
95
91
88
90
100
109
115
121
128
129
126
123
124
121
116
113
112
113
118
124
130
134
131
130
130
128
125
126
134
143
146
145
145
145
143
143
146
149
151
154
157
159
157
155
156
158
158
156
154
152
151
151
151
148
143
139
137
202
130
78
71
70
72
70
67
61
57
58
60
61
62
64
65
66
67
66
65
62
59
50
49
51
55
58
62
64
64
62
60
59
59
61
60
59
54
52
52
51
50
52
57
61
64
67
70
71
70
75
86
100
112
123
127
120
107
101
95
83
74
81
89
89
89
90
91
91
91
91
91
91
89
90
91
98
101
100
94
92
93
96
99
98
106
110
110
111
114
118
115
111
114
111
104
99
95
92
92
97
105
113
117
121
123
125
124
126
131
139
144
144
142
141
142
146
147
148
146
143
142
144
148
151
150
148
146
143
143
144
145
145
146
144
138
132
127
197
135
84
74
71
71
70
67
60
57
57
59
59
59
58
60
64
69
68
64
59
54
49
48
50
50
51
51
52
53
54
55
54
56
57
55
57
54
52
52
52
55
61
67
72
75
81
85
87
93
102
116
132
143
145
145
140
133
129
127
119
106
99
111
122
124
125
125
124
125
125
126
126
121
114
111
119
128
124
111
103
101
106
111
115
120
119
115
113
113
117
117
114
114
112
109
106
102
96
92
89
92
95
97
101
106
111
114
117
120
125
130
136
138
137
138
142
144
143
146
146
144
144
147
148
146
144
141
139
139
141
141
141
141
139
134
127
125
196
136
86
76
71
71
70
68
61
55
54
55
56
56
54
55
58
63
62
58
53
54
53
52
47
44
41
42
44
47
50
51
52
52
53
53
57
57
55
57
59
65
76
84
86
85
88
91
97
109
119
128
139
143
139
135
136
137
134
138
140
133
117
120
134
143
149
152
147
147
150
150
149
146
141
134
135
138
134
123
115
115
116
119
124
127
126
125
125
123
126
127
122
115
113
113
112
110
107
102
98
95
94
92
95
101
105
108
109
106
107
115
123
126
128
130
135
136
137
141
144
145
147
148
146
140
139
140
138
138
140
141
141
142
139
134
130
128
198
132
82
73
70
70
69
66
61
55
50
50
52
53
52
50
48
49
48
46
49
53
56
53
47
42
40
42
44
47
49
48
49
51
54
56
60
62
65
67
72
80
91
100
98
92
87
88
93
109
117
120
120
118
113
114
118
120
118
123
134
139
128
113
112
125
140
149
145
142
144
143
145
151
156
152
142
133
126
122
124
126
126
126
125
124
129
135
139
138
141
140
130
116
109
107
108
111
112
112
111
111
110
108
109
111
112
112
107
100
96
101
111
115
116
120
127
129
130
131
133
137
142
144
141
133
131
133
134
135
137
139
142
144
142
137
133
133
201
125
72
66
65
63
63
60
57
53
51
50
52
52
50
46
45
46
46
47
50
53
49
47
47
47
47
47
47
45
45
45
46
52
60
63
63
65
69
74
80
86
90
91
86
82
76
73
78
95
105
107
104
95
95
100
100
96
92
97
104
114
121
111
100
98
103
119
132
138
138
128
127
139
149
148
141
137
134
131
130
132
134
134
132
131
134
137
139
140
142
136
125
113
108
107
110
114
116
114
113
116
121
124
121
114
113
117
118
114
111
112
113
110
105
105
113
122
128
130
128
127
129
131
132
130
132
136
136
133
132
132
133
134
130
127
127
128
198
120
66
59
59
57
56
55
54
53
53
53
52
48
45
45
46
48
50
50
49
48
44
43
44
46
47
45
44
43
44
47
51
58
66
68
59
58
62
64
67
73
75
74
72
72
67
60
60
74
83
85
82
78
75
76
77
76
74
74
81
89
98
93
83
78
80
88
98
105
104
95
98
115
128
125
121
120
119
116
115
117
120
126
136
138
137
133
127
129
131
126
117
111
111
114
117
121
123
121
118
119
124
130
129
127
124
124
122
117
113
113
113
111
108
106
106
109
113
116
119
120
121
124
128
129
133
136
138
138
137
137
138
138
134
128
124
123
196
116
60
54
53
53
53
54
54
54
55
53
50
46
44
45
46
46
48
48
46
44
40
39
41
44
46
46
45
46
48
51
55
62
69
67
54
52
56
55
58
64
69
67
65
69
61
52
50
60
66
65
61
59
55
55
59
59
57
58
60
66
79
78
69
65
65
63
69
76
75
68
70
88
105
104
100
98
96
94
97
96
97
105
117
120
121
120
115
118
122
121
118
119
123
125
126
127
128
125
125
127
130
134
133
133
131
130
128
123
117
115
114
115
113
110
105
105
107
110
112
115
117
120
125
126
129
134
137
139
141
140
139
139
137
131
126
124
196
115
59
52
51
52
53
54
54
53
53
52
47
45
45
45
44
45
45
46
45
42
40
40
41
43
46
51
54
56
56
57
58
63
65
62
50
49
53
51
52
60
65
65
59
60
56
48
46
50
54
51
47
45
39
39
45
47
44
43
43
47
63
66
59
55
54
47
51
57
57
50
49
63
82
87
87
80
75
79
84
79
76
82
90
91
96
101
102
110
117
120
122
122
129
133
132
127
128
129
131
132
135
136
133
132
132
132
133
129
124
119
116
116
117
115
112
111
109
109
109
113
116
116
118
121
124
128
132
137
139
138
136
133
132
132
131
130
199
115
61
59
59
55
52
51
52
52
52
47
44
44
44
43
41
41
45
46
44
42
44
46
47
49
48
54
63
70
71
70
63
59
59
56
49
49
49
44
45
50
55
55
49
44
45
44
41
39
39
40
42
39
32
30
35
38
34
33
34
35
42
45
43
42
41
39
43
46
46
38
37
47
62
74
77
69
66
75
76
69
67
71
77
75
80
87
88
99
105
110
113
114
115
122
128
126
130
132
131
132
133
132
132
132
130
129
130
130
125
117
113
114
119
122
121
116
110
105
105
107
109
108
107
114
117
118
122
125
123
121
120
120
121
126
130
132
200
119
63
56
54
53
52
53
52
51
49
46
42
43
45
44
43
43
44
44
46
46
50
49
56
63
59
64
73
79
78
74
70
64
58
56
47
47
49
43
43
43
43
43
41
41
42
41
34
31
32
36
39
35
31
31
34
37
32
35
42
43
45
48
45
39
37
40
47
49
45
39
36
42
52
60
61
60
70
89
89
75
75
87
88
79
75
76
78
86
85
84
88
91
90
96
108
115
118
120
123
125
120
125
131
130
125
123
124
125
124
120
118
120
120
119
117
115
110
108
107
108
104
98
92
96
99
102
107
113
115
117
118
121
123
126
130
132
200
121
65
58
55
53
51
48
45
43
44
43
43
46
47
46
45
44
43
43
45
49
53
57
62
67
69
71
73
73
72
65
65
61
53
51
43
41
43
43
42
42
39
37
36
36
38
38
33
30
30
32
33
29
28
31
35
38
35
44
54
58
61
63
58
48
41
45
55
57
48
41
40
41
46
51
51
52
64
84
95
79
78
97
105
89
84
82
73
76
73
70
73
75
74
82
92
99
102
104
107
109
104
114
125
125
120
119
121
123
121
121
121
121
119
116
115
115
114
112
108
105
102
99
93
89
90
92
97
105
112
115
115
119
124
126
128
128
198
121
67
61
58
54
46
39
35
35
39
43
47
53
54
51
47
45
46
47
50
54
59
63
64
65
70
66
65
64
59
56
60
57
49
46
42
43
46
47
49
48
42
35
32
32
34
37
34
35
34
33
31
33
35
37
41
45
45
56
66
70
76
75
68
57
48
49
58
62
51
43
41
40
41
44
45
45
53
72
92
84
81
100
121
99
93
99
86
74
69
66
67
72
69
72
79
84
90
90
89
89
85
98
112
116
117
121
123
124
122
123
126
125
120
116
113
112
112
110
107
104
105
103
97
92
88
87
88
95
106
110
111
113
118
122
123
122
196
121
67
63
58
49
38
30
28
32
38
44
52
61
62
56
49
48
53
59
62
66
65
67
67
65
62
54
56
55
48
55
61
55
48
51
47
55
65
62
65
62
50
37
33
33
37
40
42
43
42
40
40
48
52
49
48
53
57
64
70
73
80
75
67
59
50
45
51
55
49
42
40
40
38
38
39
40
44
57
83
86
83
98
128
106
99
116
116
85
71
68
65
78
74
67
71
76
82
78
75
73
71
80
92
102
110
120
128
129
128
130
134
133
128
120
111
105
104
105
105
107
109
108
101
95
90
85
81
84
92
100
103
104
106
110
112
113
191
121
67
57
47
39
33
29
33
38
44
50
57
63
63
57
53
58
67
75
82
83
81
81
82
76
56
45
49
51
49
68
68
61
58
55
54
69
85
84
84
72
54
39
35
38
43
45
46
46
48
51
55
63
58
48
43
45
51
58
61
62
67
64
60
61
60
51
43
42
44
43
42
43
43
39
36
38
40
46
62
67
65
78
112
104
93
115
149
125
89
69
67
87
88
76
73
85
84
73
65
64
65
67
74
84
94
108
121
129
133
135
137
139
135
127
117
111
110
111
113
115
115
111
103
91
88
89
89
83
80
83
88
92
99
102
101
101
186
115
58
48
41
41
42
43
47
47
50
56
62
63
60
59
61
66
75
83
91
94
99
96
87
75
55
47
53
55
54
79
89
95
100
90
90
96
98
93
81
62
48
40
37
42
43
44
44
43
48
55
61
64
57
45
37
35
40
46
50
56
62
65
63
61
60
55
46
48
60
64
54
48
49
43
36
35
39
43
49
53
59
71
94
102
92
101
139
154
122
81
61
70
82
79
76
87
92
82
67
59
58
59
64
70
74
83
99
114
122
123
123
125
126
120
114
113
114
113
108
104
101
98
94
90
86
87
89
89
90
91
91
89
91
93
94
94
183
113
56
49
47
55
61
62
62
60
61
66
68
65
62
64
70
76
82
88
93
98
104
94
80
68
55
50
60
68
65
92
122
145
153
136
127
118
103
90
75
62
54
50
46
47
45
44
45
47
53
60
65
62
51
40
33
29
29
31
37
45
52
54
54
52
54
56
52
56
68
75
67
62
62
58
48
43
42
41
41
46
58
75
94
112
108
102
121
157
151
108
68
60
71
76
75
78
95
93
78
62
54
52
56
60
61
65
77
94
106
108
105
107
111
110
108
107
107
105
99
92
87
86
86
87
85
84
89
95
101
102
98
91
87
88
89
90
181
117
63
61
63
74
81
80
80
76
77
78
75
67
68
74
82
86
89
94
98
99
99
83
70
63
55
55
72
84
81
104
149
180
184
167
153
132
107
83
73
71
69
67
61
58
54
53
57
61
67
73
71
62
50
39
31
26
23
23
28
35
40
38
35
36
42
52
56
57
64
71
74
73
72
70
62
53
45
38
36
41
57
78
99
121
125
115
112
141
159
134
90
69
72
77
76
72
88
99
88
67
54
47
49
54
54
54
61
75
89
94
91
91
94
99
99
98
97
95
92
86
82
81
82
85
85
84
88
99
108
110
106
100
94
90
88
88
180
129
79
80
82
90
93
93
95
95
97
93
80
72
77
88
94
97
100
106
109
103
87
75
71
69
60
62
79
98
105
113
144
166
168
164
162
147
118
91
78
81
84
83
77
74
70
70
75
82
89
92
86
70
51
35
26
26
27
27
29
32
32
27
23
22
24
36
52
58
56
55
62
64
62
62
58
52
42
30
28
36
53
73
94
114
124
121
114
117
137
143
126
101
94
95
92
81
79
91
92
75
59
48
45
45
48
47
49
59
73
84
84
81
83
86
89
92
93
91
89
84
82
84
88
90
88
89
91
97
106
113
118
118
108
101
101
101
187
141
96
92
92
94
99
105
109
101
102
101
91
88
90
100
112
114
115
120
119
105
83
75
82
90
86
90
103
124
153
167
181
193
197
196
188
164
132
101
86
86
88
90
92
100
103
99
88
90
89
87
79
59
38
28
30
35
36
35
35
34
35
33
30
28
28
31
44
56
60
63
70
74
73
65
64
65
57
43
33
39
54
75
98
117
131
138
136
130
139
151
148
126
112
108
102
95
93
97
97
93
87
64
48
45
46
47
48
50
58
68
72
73
73
77
75
81
91
97
102
93
83
82
87
87
87
88
92
98
108
117
121
121
116
112
112
111
191
143
97
93
100
101
103
107
109
108
111
108
100
99
98
106
115
115
117
121
117
103
89
88
97
106
106
117
129
153
185
201
201
200
201
200
191
167
133
100
81
76
81
90
101
113
121
114
96
86
80
74
63
43
27
26
34
42
43
48
51
49
52
53
51
45
37
34
43
54
62
69
83
94
95
82
75
75
71
62
53
53
59
74
100
124
139
147
147
136
137
151
162
159
146
133
124
115
106
97
95
98
102
85
63
48
43
47
50
49
49
53
59
64
66
68
68
76
86
93
98
93
84
82
86
86
86
90
95
100
106
112
117
120
122
122
122
121
196
142
96
95
105
106
106
107
109
118
120
116
107
104
104
109
117
115
117
117
108
97
94
100
107
114
121
135
151
173
203
217
211
203
199
197
191
167
132
96
75
68
73
88
103
114
123
121
104
87
76
65
48
30
22
26
35
40
43
53
61
64
73
77
71
60
44
38
43
53
61
71
88
102
106
95
86
82
78
71
65
64
64
73
99
126
142
151
152
144
142
153
166
175
168
155
144
136
119
104
95
96
100
91
71
54
46
50
54
53
48
47
51
56
60
61
63
70
78
83
87
88
86
83
84
86
88
92
98
103
104
105
111
119
125
127
127
126
198
141
99
104
110
109
109
112
118
133
135
124
113
108
111
116
119
116
117
109
98
93
95
107
114
121
137
157
173
193
216
226
221
213
208
206
198
172
134
95
73
64
70
84
97
107
120
124
114
94
79
58
36
20
18
23
29
33
38
50
63
79
105
109
94
73
52
42
41
48
59
72
84
95
99
98
96
90
80
72
68
69
70
77
100
127
145
153
160
162
158
158
162
171
176
172
165
159
144
121
103
93
89
84
74
64
57
57
60
57
54
51
52
54
55
57
59
63
65
68
74
83
86
85
84
88
91
95
101
107
104
101
107
118
126
129
129
128
198
146
108
113
111
115
116
118
130
148
148
134
119
114
120
123
121
119
114
106
97
93
102
113
121
131
153
176
191
206
223
230
227
223
217
210
198
172
135
102
80
65
63
73
87
97
107
114
108
90
74
52
27
17
18
24
27
30
36
45
72
123
183
179
129
79
53
41
37
39
48
61
73
80
83
86
89
87
81
77
76
79
84
93
109
138
157
167
172
176
175
173
174
181
187
183
172
164
156
141
122
107
98
94
87
76
68
63
61
60
62
65
64
58
55
54
55
54
54
58
66
79
89
92
92
90
89
91
97
103
102
101
107
117
123
125
125
125
197
158
125
128
118
124
125
123
130
139
140
132
125
123
127
126
121
117
109
104
103
106
114
118
126
144
169
189
203
214
224
229
228
223
217
208
193
166
134
107
91
76
70
75
87
96
102
101
94
81
66
45
23
18
21
24
26
29
36
46
79
143
213
202
137
76
50
38
32
32
38
53
66
70
73
83
87
83
79
80
89
96
94
94
107
140
166
177
182
187
187
187
186
188
197
194
186
178
173
161
142
122
112
110
101
92
86
80
73
70
73
77
74
68
63
59
57
54
51
51
58
68
78
84
89
89
89
92
96
101
104
105
108
113
118
119
119
119
194
163
130
132
123
129
129
127
131
138
135
130
128
131
130
124
118
110
103
104
110
117
120
118
129
153
179
197
208
216
224
226
224
220
215
208
192
164
132
105
94
87
80
80
89
101
101
95
85
77
63
41
22
20
22
23
25
30
36
45
74
119
166
156
107
63
44
33
28
28
33
49
62
68
73
82
86
81
76
78
87
91
89
89
106
140
168
182
188
191
193
194
194
194
196
198
196
193
188
178
157
135
125
120
113
107
106
101
90
83
83
84
79
76
77
75
75
72
63
56
55
58
66
74
80
84
90
94
98
102
105
107
107
108
113
115
116
116
193
160
123
121
123
129
130
129
138
148
139
128
128
134
126
119
114
105
101
107
116
123
120
116
131
158
182
198
208
217
222
220
220
218
215
209
194
165
129
100
89
86
82
78
87
101
101
92
82
75
61
40
23
20
21
22
26
30
33
46
62
77
89
83
66
47
37
30
26
26
31
46
60
70
78
83
82
79
77
73
70
71
76
85
109
144
167
180
187
192
195
197
199
198
195
199
202
201
196
185
167
146
136
128
120
116
117
112
103
94
91
87
82
84
90
95
97
95
83
67
59
54
58
66
71
78
86
92
96
100
102
103
103
105
110
115
116
116
192
156
118
119
128
128
128
133
146
154
140
127
126
128
120
113
110
105
105
112
121
126
122
123
138
159
177
192
203
214
221
219
220
218
212
203
190
163
128
95
78
73
67
64
76
97
100
88
77
69
55
37
23
18
19
24
28
33
34
46
56
56
51
48
44
38
32
30
28
25
27
41
61
76
81
83
79
78
76
70
61
63
72
87
109
141
166
181
189
193
194
197
201
204
206
210
210
202
191
180
168
156
146
135
125
116
112
108
102
97
92
88
86
92
101
107
112
109
95
77
64
56
56
62
65
66
71
79
87
92
93
93
94
101
110
116
117
118
193
160
123
124
135
132
128
134
141
142
134
128
128
122
115
108
105
109
111
119
128
131
133
139
149
158
165
177
192
208
219
219
221
221
216
207
194
169
135
99
76
67
66
69
80
97
97
87
80
73
59
42
26
20
21
23
25
28
30
36
41
43
41
38
36
33
31
29
26
26
31
47
68
81
86
88
87
87
84
77
66
67
76
89
112
146
172
185
192
196
197
198
200
203
207
213
215
210
196
183
172
159
148
138
131
125
118
114
111
105
99
95
96
102
111
120
125
120
106
90
79
69
66
67
66
65
66
72
81
88
88
85
88
97
107
112
114
115
192
165
129
128
135
134
136
142
138
132
128
127
126
119
114
109
110
118
120
128
135
135
140
150
158
162
164
169
182
199
214
221
224
223
219
210
198
175
143
107
80
67
69
79
88
100
101
94
83
75
65
47
28
18
20
22
23
25
28
30
32
34
34
33
30
28
28
26
24
28
37
53
72
82
84
86
89
89
86
83
74
73
79
92
117
152
174
184
191
198
201
202
202
204
207
213
217
215
197
184
175
165
151
140
135
129
121
117
117
116
114
111
111
115
122
132
136
130
117
104
92
80
74
72
70
69
68
70
76
81
82
83
87
95
101
106
109
112
191
166
131
128
132
132
138
144
138
128
126
127
126
118
112
112
115
124
129
136
138
136
142
154
164
170
170
171
177
191
209
222
226
225
220
214
203
181
151
115
84
70
74
83
91
104
113
109
92
80
70
55
35
19
18
20
20
22
25
27
29
30
29
28
28
27
25
23
25
31
43
59
76
84
83
83
88
88
85
86
83
80
81
94
121
157
174
180
189
198
202
203
204
204
206
211
213
211
194
183
179
172
157
147
138
130
121
119
121
126
129
125
125
127
134
144
144
137
125
114
101
89
79
75
74
74
72
72
72
74
78
81
86
91
94
100
105
109
190
165
131
129
131
130
132
135
135
131
126
127
129
120
113
112
114
121
134
140
136
134
144
158
170
175
175
172
178
191
209
224
229
227
224
219
208
186
157
122
92
79
80
86
88
106
127
129
111
91
79
66
46
28
21
20
19
21
22
25
29
30
28
27
26
25
23
23
25
35
52
69
81
87
89
86
86
86
87
88
88
84
83
96
127
159
175
180
189
199
202
201
202
204
203
204
205
203
192
184
178
173
164
155
145
135
128
126
129
133
135
133
135
142
148
152
150
140
129
119
110
101
89
80
76
77
75
74
72
72
73
76
81
84
88
92
98
102
186
167
133
136
137
137
134
133
138
138
134
129
126
124
119
116
115
119
128
129
131
139
151
163
171
176
176
180
188
200
211
223
227
229
229
226
212
194
169
134
107
94
91
92
94
109
126
132
124
107
91
74
57
39
27
21
20
21
23
25
25
24
24
24
22
21
20
24
29
41
58
74
79
84
86
81
80
83
86
88
88
86
88
103
137
164
176
183
191
198
199
199
202
207
209
210
209
205
197
188
179
171
164
155
145
138
136
138
137
135
136
136
142
151
155
153
149
144
137
130
123
113
100
88
81
78
78
76
73
71
72
73
77
80
85
88
92
95
183
168
140
147
149
151
148
145
147
142
136
131
126
125
119
115
120
128
130
127
128
139
154
162
167
171
179
191
201
208
215
224
227
228
230
229
217
202
179
146
116
100
91
87
91
100
108
114
116
112
100
84
68
55
40
29
25
21
21
22
22
20
22
21
20
21
24
33
41
51
64
75
82
82
80
74
75
81
86
88
86
85
94
115
147
168
179
187
195
200
200
200
202
207
211
211
209
204
200
194
186
177
169
159
146
138
138
142
139
136
137
143
151
157
158
151
149
150
147
141
132
119
103
89
80
77
75
74
74
74
74
74
77
81
86
89
90
92
182
172
149
159
161
163
160
154
149
140
137
134
130
123
111
110
119
131
131
131
134
141
152
160
166
172
185
200
209
213
217
224
224
225
227
225
219
209
190
161
127
102
87
80
85
92
95
100
107
115
111
96
77
67
54
43
33
25
21
21
22
21
21
22
23
27
33
46
55
61
67
73
84
85
76
72
75
81
85
87
83
86
102
128
157
173
184
194
200
202
202
202
203
206
210
210
208
204
199
195
190
181
172
163
150
141
140
142
140
140
145
151
159
162
159
155
154
154
149
142
131
119
103
88
80
76
73
73
74
76
75
76
78
82
87
90
94
96
183
181
158
168
170
170
164
154
145
140
139
136
129
113
103
107
117
127
130
138
145
147
152
161
171
181
190
204
211
215
218
226
223
222
224
221
217
212
199
176
141
111
90
81
81
87
92
98
105
116
117
104
86
76
68
58
48
36
29
28
29
26
25
27
32
39
47
57
66
69
68
70
84
87
78
74
77
79
82
89
87
93
114
143
167
180
189
199
202
203
204
205
205
204
209
211
210
207
199
194
190
183
174
167
157
150
145
143
144
148
154
159
162
161
159
159
157
153
147
137
127
118
105
92
84
77
74
76
77
78
78
77
78
82
87
95
101
103
186
186
165
173
178
176
164
149
143
144
141
128
109
99
111
127
133
133
135
143
149
152
155
166
180
190
196
202
210
216
220
226
225
223
221
216
213
210
203
189
159
127
103
87
79
80
88
97
104
109
108
98
87
86
85
78
69
60
54
50
44
41
41
47
53
58
62
65
72
75
71
67
74
81
80
79
77
74
79
91
95
106
129
155
175
186
193
197
196
198
200
204
207
208
209
210
211
210
199
192
190
186
181
178
171
160
150
145
148
156
163
162
160
159
160
160
157
152
146
137
131
126
113
98
86
80
80
80
81
82
80
79
80
84
90
95
100
101
186
186
165
177
184
184
172
155
145
143
132
115
101
103
126
145
150
147
147
151
156
161
163
173
184
192
197
202
210
217
222
227
228
229
227
218
212
206
201
193
171
142
117
96
80
76
83
94
101
103
102
97
94
101
104
99
90
83
79
70
61
57
61
66
70
76
79
82
88
91
84
74
70
74
80
81
79
76
80
93
105
123
146
169
185
193
197
196
193
194
198
203
208
210
211
212
213
211
202
193
188
185
187
187
176
161
150
148
153
159
165
162
160
161
165
168
163
154
142
130
124
122
113
101
92
86
84
85
87
88
86
85
86
90
95
100
102
103
186
190
171
182
185
183
171
152
141
133
120
108
105
115
135
151
158
155
153
157
161
164
168
173
181
188
196
202
210
217
223
227
230
232
230
227
218
211
206
200
186
160
131
103
83
80
86
91
92
93
97
99
100
109
120
122
116
110
106
96
84
75
74
72
73
82
93
100
108
107
96
83
75
76
82
84
84
83
86
96
112
136
162
180
195
203
204
201
196
198
200
202
205
206
209
210
209
207
201
192
183
180
186
187
175
161
157
159
162
163
163
159
159
163
166
165
156
146
135
124
120
121
115
103
93
87
86
88
91
93
92
91
92
95
99
105
107
109
190
198
182
189
185
177
162
144
130
120
113
112
117
124
133
147
158
158
156
159
163
164
169
173
177
185
194
203
210
216
223
230
234
234
233
232
225
220
216
212
201
179
149
116
92
88
91
91
85
86
95
101
104
113
128
136
134
128
122
116
106
94
83
71
69
78
95
107
116
114
102
92
85
84
87
89
89
90
95
104
123
150
173
190
204
210
210
207
204
206
205
203
202
202
206
207
205
201
197
191
184
179
182
180
171
165
166
171
171
166
160
155
156
160
160
154
146
138
129
121
117
119
112
102
92
87
87
90
93
95
95
96
97
100
103
110
115
117
193
206
190
194
188
173
153
133
118
114
117
124
129
132
131
140
153
161
160
158
159
164
173
175
178
184
193
202
211
218
226
232
238
237
234
233
232
228
225
220
213
196
168
137
112
101
97
94
90
91
96
102
109
118
125
130
129
124
118
118
118
111
94
75
67
72
83
94
104
106
101
98
95
94
96
93
90
93
103
119
144
167
184
198
208
212
213
211
210
211
210
206
201
201
204
207
207
202
198
196
192
187
179
172
169
171
172
170
169
167
160
154
153
154
150
146
144
140
131
119
111
107
104
99
93
89
88
89
92
92
93
98
103
106
109
114
119
122
196
201
187
195
190
169
144
123
109
119
134
144
148
139
134
138
150
162
162
160
160
163
170
173
177
182
190
201
211
221
229
235
237
236
234
235
234
232
229
226
221
208
187
163
137
118
103
95
91
91
95
101
109
116
116
116
115
111
109
109
107
101
87
78
79
78
78
83
89
91
88
83
84
93
98
97
94
100
116
137
164
183
197
206
211
215
216
215
213
213
213
208
203
200
204
207
207
205
200
196
189
180
171
168
171
175
173
166
164
164
163
161
157
149
143
142
143
140
134
127
117
106
97
92
89
86
85
88
91
91
93
101
110
113
115
119
124
129
198
204
190
196
183
160
137
124
127
149
163
168
165
157
147
143
150
165
167
165
162
162
166
170
174
181
188
200
211
223
230
233
235
234
234
236
236
234
232
232
228
219
204
185
158
134
113
97
91
90
93
99
106
110
109
110
109
106
105
103
97
90
80
76
75
76
75
76
78
79
79
77
83
95
103
104
105
117
137
161
183
199
207
214
216
216
215
214
212
214
214
209
202
201
204
207
207
202
195
188
181
173
167
169
174
176
173
167
163
163
164
164
160
152
143
136
131
129
129
127
122
114
104
94
86
83
86
89
92
92
96
107
117
121
120
125
131
136
201
211
196
193
175
151
130
131
165
189
198
193
180
171
161
151
151
164
169
166
163
160
164
168
174
180
187
198
212
222
229
231
232
233
234
236
236
236
234
235
233
227
215
200
179
152
128
108
97
91
90
92
97
100
101
107
108
103
103
99
91
86
83
75
71
71
75
74
71
71
76
82
91
101
111
117
125
140
162
184
199
209
216
219
221
215
210
207
209
212
212
207
202
202
205
206
204
196
187
180
175
173
172
173
174
174
174
172
168
164
162
159
156
151
143
133
126
124
125
123
120
114
107
96
85
83
87
92
95
96
101
112
122
127
126
129
134
138
203
214
197
188
172
144
123
137
196
215
218
208
190
178
167
160
161
168
170
169
166
163
166
168
173
178
184
196
210
219
225
225
228
231
233
237
238
237
236
237
237
234
226
214
199
175
150
129
113
98
88
84
85
87
97
107
109
103
100
97
91
88
86
81
73
71
78
79
74
71
75
87
100
110
120
133
147
167
186
202
210
217
220
222
221
215
206
203
203
207
208
206
202
201
203
201
197
189
181
177
178
178
178
177
176
175
176
176
172
166
161
152
146
141
137
134
129
127
126
124
115
107
101
96
91
88
90
94
98
101
105
114
123
129
129
131
135
137
202
205
186
182
168
140
126
141
181
187
185
184
180
179
168
167
182
208
194
187
183
172
168
168
167
171
178
189
201
210
216
219
224
230
233
239
240
239
238
240
240
237
233
225
215
199
178
159
141
119
100
87
81
83
97
109
109
104
100
98
95
92
92
85
74
69
77
87
90
85
82
94
103
115
132
152
171
190
204
213
216
222
224
223
220
214
211
207
201
199
202
203
201
197
194
189
184
181
181
181
180
178
177
178
178
176
174
172
168
166
164
154
143
133
126
122
122
127
130
126
114
107
105
102
94
90
91
96
101
106
111
117
123
129
133
134
135
137
203
206
182
170
158
131
130
155
183
171
173
184
187
182
175
177
194
224
201
198
200
183
172
168
166
166
172
183
196
206
215
220
225
231
236
239
241
241
240
240
239
239
236
230
223
212
199
188
173
154
134
115
101
96
102
106
105
102
97
94
92
89
89
87
85
83
80
87
91
90
90
102
118
136
155
175
193
205
214
217
220
223
224
223
220
220
220
216
208
199
196
194
192
187
185
183
179
178
179
179
177
175
175
176
179
177
170
163
156
154
156
153
146
142
139
136
127
122
120
118
115
109
106
101
97
94
94
97
103
111
117
120
124
130
138
139
138
141
204
210
186
169
150
124
128
158
182
167
168
182
188
182
184
186
191
205
186
183
185
176
171
169
167
167
170
179
191
205
217
224
228
232
237
240
241
242
241
240
238
237
236
234
231
223
216
209
199
185
169
151
134
120
115
111
107
104
99
96
93
88
87
89
95
98
95
96
101
105
113
127
147
166
182
197
209
216
218
219
222
224
225
224
224
224
223
220
212
198
190
185
182
180
181
182
181
180
180
178
174
174
176
177
179
178
168
155
142
138
140
143
144
148
152
149
137
125
119
118
117
113
107
104
101
99
99
102
105
115
123
125
127
134
142
143
142
144
206
212
189
173
144
119
123
146
163
161
164
173
181
179
187
188
180
174
165
158
157
160
162
163
164
165
166
174
186
200
213
221
225
230
234
237
238
240
241
239
237
238
238
238
236
231
227
224
218
207
197
185
169
153
141
130
123
121
114
108
105
102
98
100
107
114
117
121
127
137
148
163
180
194
204
211
220
222
222
221
223
225
225
225
227
223
220
215
207
194
184
179
178
178
181
183
183
185
185
179
173
172
175
177
179
177
167
149
133
125
128
135
139
147
153
150
142
134
128
124
121
116
110
107
105
105
105
104
107
117
126
128
130
135
143
146
146
148
208
214
193
173
139
119
117
123
127
147
161
173
183
176
179
177
166
158
150
147
145
146
148
153
156
158
158
164
176
190
203
211
218
223
229
232
234
237
240
240
238
239
238
237
238
236
233
231
227
221
218
212
201
188
175
164
155
149
141
134
131
129
124
126
131
136
145
152
161
171
182
193
203
210
214
218
224
226
223
221
223
225
227
229
226
219
212
206
197
185
180
181
181
180
180
180
181
186
189
183
174
168
168
172
177
176
165
146
130
123
126
137
140
143
146
146
144
139
134
128
122
115
109
108
109
110
110
107
108
116
126
130
131
135
141
146
151
155
211
244
239
234
225
220
219
220
220
227
232
235
237
235
235
235
232
229
227
227
226
226
227
228
229
230
230
232
234
239
241
243
246
247
248
249
250
251
251
252
252
252
251
251
251
251
251
250
248
247
247
245
244
242
238
235
233
231
229
227
226
226
225
225
226
227
230
232
233
236
239
242
244
245
245
246
248
248
247
247
247
248
248
248
249
246
244
242
240
237
236
236
236
236
236
236
237
238
239
237
234
232
233
234
235
236
233
227
223
221
222
226
225
226
227
227
227
226
224
223
221
219
218
218
219
218
219
217
218
219
222
223
224
225
226
227
229
230
244
